<svg xmlns="http://www.w3.org/2000/svg" width="32" height="24" viewBox="0 0 32 24">
  <defs>
    <linearGradient id="gradientTheme" x1="0%" y1="0%" x2="0%" y2="100%">
      <stop offset="0%" style="stop-color: #000000;stop-opacity:1" />
      <stop offset="100%" style="stop-color: #1E1E1E;stop-opacity:1" />
    </linearGradient>
  </defs>
  <rect width="32" height="24" fill="url(#gradientTheme)"/>
  
  <g fill="#FFFFFF">
    <circle cx="15" cy="16" r="8" opacity="0.3"/>
    <path d="m16 10a6 6 0 0 0 -6 6 6 6 0 0 0 6 6 6 6 0 0 0 6 -6 6 6 0 0 0 -6 -6zm0 2a4 4 0 0 1 4 4 4 4 0 0 1 -4 4 4 4 0 0 1 -4 -4 4 4 0 0 1 4 -4zm0 2a2 2 0 0 0 -2 2 2 2 0 0 0 2 2 2 2 0 0 0 2 -2 2 2 0 0 0 -2 -2z"/>
  </g>
</svg>
